<svg width="30" height="30" viewBox="0 0 30 30" fill="none" xmlns="http://www.w3.org/2000/svg">
<path fill-rule="evenodd" clip-rule="evenodd" d="M0.333344 2.78392C0.333344 2.13396 0.591538 1.51063 1.05113 1.05104C1.51072 0.59145 2.13405 0.333255 2.78401 0.333255H27.2133C27.5354 0.332729 27.8545 0.395739 28.1522 0.518677C28.4499 0.641616 28.7205 0.822068 28.9483 1.0497C29.1762 1.27734 29.357 1.54769 29.4802 1.84527C29.6035 2.14285 29.6669 2.46182 29.6667 2.78392V27.2133C29.667 27.5354 29.6039 27.8545 29.4808 28.1522C29.3577 28.4499 29.1771 28.7205 28.9494 28.9483C28.7216 29.1762 28.4512 29.3569 28.1535 29.4802C27.8559 29.6034 27.5368 29.6668 27.2147 29.6666H2.78401C2.46207 29.6666 2.14329 29.6032 1.84587 29.4799C1.54846 29.3567 1.27824 29.176 1.05066 28.9483C0.823073 28.7206 0.642586 28.4503 0.519507 28.1528C0.396428 27.8553 0.333169 27.5365 0.333344 27.2146V2.78392ZM11.944 11.5173H15.916V13.5119C16.4893 12.3653 17.956 11.3333 20.16 11.3333C24.3853 11.3333 25.3867 13.6173 25.3867 17.8079V25.5706H21.1107V18.7626C21.1107 16.3759 20.5373 15.0293 19.0813 15.0293C17.0613 15.0293 16.2213 16.4813 16.2213 18.7626V25.5706H11.944V11.5173ZM4.61068 25.3879H8.88801V11.3333H4.61068V25.3866V25.3879ZM9.50001 6.74926C9.50808 7.11549 9.44291 7.47964 9.30833 7.82034C9.17375 8.16104 8.97248 8.47144 8.71632 8.7333C8.46016 8.99516 8.15428 9.20322 7.81662 9.34526C7.47896 9.48731 7.11633 9.56048 6.75001 9.56048C6.38369 9.56048 6.02106 9.48731 5.6834 9.34526C5.34575 9.20322 5.03986 8.99516 4.7837 8.7333C4.52754 8.47144 4.32627 8.16104 4.19169 7.82034C4.05711 7.47964 3.99195 7.11549 4.00001 6.74926C4.01584 6.03039 4.31252 5.34631 4.82652 4.8435C5.34053 4.3407 6.03098 4.05915 6.75001 4.05915C7.46905 4.05915 8.1595 4.3407 8.6735 4.8435C9.1875 5.34631 9.48418 6.03039 9.50001 6.74926Z" fill="white"/>
</svg>
