<svg width="33" height="33" viewBox="0 0 33 33" fill="none" xmlns="http://www.w3.org/2000/svg">
<path d="M16.5354 0.515625C7.51008 0.515625 0.515625 7.11176 0.515625 16.0211C0.515625 20.6811 2.43053 24.7081 5.54748 27.4899C6.08566 27.9739 5.97481 28.2543 6.06633 31.243C6.07354 31.4524 6.13185 31.6568 6.23619 31.8384C6.34054 32.02 6.48773 32.1734 6.66495 32.285C6.84216 32.3967 7.04401 32.4633 7.25288 32.4791C7.46176 32.4949 7.67132 32.4593 7.86328 32.3754C11.2735 30.8737 11.3173 30.7551 11.8955 30.9124C21.7755 33.6316 32.4844 27.3088 32.4844 16.0211C32.4844 7.11176 25.5615 0.515625 16.5354 0.515625ZM26.1544 12.4478L21.4494 19.8967C21.2717 20.1768 21.0381 20.4172 20.7632 20.6028C20.4882 20.7884 20.178 20.9152 19.8517 20.9753C19.5255 21.0354 19.1904 21.0274 18.8674 20.9519C18.5444 20.8765 18.2405 20.7351 17.9747 20.5367L14.2312 17.7349C14.0639 17.6094 13.8604 17.5416 13.6512 17.5416C13.442 17.5416 13.2384 17.6094 13.0711 17.7349L8.0199 21.566C7.34572 22.0771 6.46271 21.2695 6.91711 20.556L11.6222 13.1072C11.7998 12.827 12.0334 12.5866 12.3083 12.4009C12.5832 12.2152 12.8935 12.0884 13.2197 12.0283C13.546 11.9682 13.8811 11.9762 14.2041 12.0517C14.5271 12.1272 14.8311 12.2687 15.0969 12.4672L18.839 15.2683C19.0064 15.3938 19.2099 15.4617 19.4191 15.4617C19.6283 15.4617 19.8318 15.3938 19.9992 15.2683L25.0529 11.4411C25.7258 10.9267 26.6088 11.7337 26.1544 12.4478Z" fill="white"/>
</svg>
